<svg width="444" height="72" viewBox="0 0 444 72" fill="none" xmlns="http://www.w3.org/2000/svg">
<path d="M4.34 22V8.6H0.22V7.1H10.02V8.6H5.94V22H4.34ZM10.7936 26.4C10.5803 26.4 10.3603 26.38 10.1336 26.34C9.92026 26.3133 9.70693 26.26 9.49359 26.18V24.78C9.62693 24.7933 9.79359 24.8133 9.99359 24.84C10.2069 24.88 10.4203 24.9 10.6336 24.9C11.2869 24.9 11.7869 24.76 12.1336 24.48C12.4803 24.2133 12.8203 23.6933 13.1536 22.92L13.8336 21.32L13.7936 22.64L9.25359 11.28H10.8736L14.5936 20.66H14.1736L17.8736 11.28H19.5336L14.6336 23.36C14.4203 23.88 14.1469 24.3733 13.8136 24.84C13.4936 25.3067 13.0869 25.68 12.5936 25.96C12.1003 26.2533 11.5003 26.4 10.7936 26.4ZM20.8963 26V11.28H22.3963V13.68L22.1563 13.26C22.5829 12.58 23.1496 12.04 23.8563 11.64C24.5763 11.24 25.3963 11.04 26.3163 11.04C27.3296 11.04 28.2296 11.2867 29.0163 11.78C29.8163 12.26 30.4429 12.92 30.8963 13.76C31.3629 14.6 31.5963 15.56 31.5963 16.64C31.5963 17.7067 31.3629 18.6667 30.8963 19.52C30.4429 20.36 29.8163 21.0267 29.0163 21.52C28.2296 22 27.3296 22.24 26.3163 22.24C25.3963 22.24 24.5629 22.0333 23.8163 21.62C23.0829 21.1933 22.5296 20.5933 22.1563 19.82L22.3963 19.6V26H20.8963ZM26.2363 20.74C26.9563 20.74 27.5963 20.56 28.1563 20.2C28.7296 19.84 29.1763 19.3533 29.4963 18.74C29.8296 18.1133 29.9963 17.4133 29.9963 16.64C29.9963 15.8533 29.8296 15.1533 29.4963 14.54C29.1763 13.9267 28.7296 13.44 28.1563 13.08C27.5963 12.72 26.9563 12.54 26.2363 12.54C25.5163 12.54 24.8629 12.72 24.2763 13.08C23.7029 13.44 23.2429 13.9333 22.8963 14.56C22.5629 15.1733 22.3963 15.8667 22.3963 16.64C22.3963 17.4133 22.5629 18.1133 22.8963 18.74C23.2429 19.3533 23.7029 19.84 24.2763 20.2C24.8629 20.56 25.5163 20.74 26.2363 20.74ZM38.7161 22.24C37.7161 22.24 36.8094 22 35.9961 21.52C35.1961 21.0267 34.5628 20.3533 34.0961 19.5C33.6294 18.6467 33.3961 17.68 33.3961 16.6C33.3961 15.52 33.6228 14.5667 34.0761 13.74C34.5294 12.9 35.1428 12.24 35.9161 11.76C36.7028 11.28 37.5828 11.04 38.5561 11.04C39.3294 11.04 40.0161 11.1867 40.6161 11.48C41.2294 11.76 41.7494 12.1467 42.1761 12.64C42.6028 13.12 42.9294 13.6667 43.1561 14.28C43.3828 14.88 43.4961 15.5 43.4961 16.14C43.4961 16.2733 43.4894 16.4267 43.4761 16.6C43.4628 16.76 43.4428 16.9267 43.4161 17.1H34.3561V15.7H42.5561L41.8361 16.3C41.9561 15.5667 41.8694 14.9133 41.5761 14.34C41.2961 13.7533 40.8894 13.2933 40.3561 12.96C39.8228 12.6133 39.2228 12.44 38.5561 12.44C37.8894 12.44 37.2694 12.6133 36.6961 12.96C36.1361 13.3067 35.6961 13.7933 35.3761 14.42C35.0561 15.0333 34.9294 15.7667 34.9961 16.62C34.9294 17.4733 35.0628 18.22 35.3961 18.86C35.7428 19.4867 36.2094 19.9733 36.7961 20.32C37.3961 20.6667 38.0361 20.84 38.7161 20.84C39.5028 20.84 40.1628 20.6533 40.6961 20.28C41.2294 19.9067 41.6628 19.44 41.9961 18.88L43.2761 19.56C43.0628 20.04 42.7361 20.4867 42.2961 20.9C41.8561 21.3 41.3294 21.6267 40.7161 21.88C40.1161 22.12 39.4494 22.24 38.7161 22.24ZM55.7592 22.24C54.7059 22.24 53.7392 22.0533 52.8592 21.68C51.9792 21.2933 51.2126 20.76 50.5592 20.08C49.9192 19.3867 49.4192 18.5733 49.0592 17.64C48.6992 16.7067 48.5192 15.68 48.5192 14.56C48.5192 13.44 48.6992 12.4133 49.0592 11.48C49.4192 10.5467 49.9192 9.73333 50.5592 9.04C51.2126 8.34667 51.9792 7.81333 52.8592 7.44C53.7392 7.05333 54.7059 6.86 55.7592 6.86C56.7726 6.86 57.6792 7.04 58.4792 7.4C59.2926 7.76 59.9726 8.22667 60.5192 8.8C61.0792 9.36 61.4792 9.95333 61.7192 10.58L60.2192 11.24C59.8459 10.3733 59.2726 9.68 58.4992 9.16C57.7392 8.62667 56.8259 8.36 55.7592 8.36C54.6659 8.36 53.6926 8.62 52.8392 9.14C51.9859 9.66 51.3192 10.3867 50.8392 11.32C50.3592 12.24 50.1192 13.32 50.1192 14.56C50.1192 15.7867 50.3592 16.8667 50.8392 17.8C51.3192 18.7333 51.9859 19.46 52.8392 19.98C53.6926 20.4867 54.6659 20.74 55.7592 20.74C56.8259 20.74 57.7392 20.48 58.4992 19.96C59.2726 19.44 59.8459 18.7467 60.2192 17.88L61.7192 18.54C61.4792 19.1533 61.0792 19.7467 60.5192 20.32C59.9726 20.88 59.2926 21.34 58.4792 21.7C57.6792 22.06 56.7726 22.24 55.7592 22.24ZM66.8689 22.24C66.1889 22.24 65.5822 22.1133 65.0489 21.86C64.5156 21.5933 64.0956 21.2333 63.7889 20.78C63.4822 20.3267 63.3289 19.8067 63.3289 19.22C63.3289 18.66 63.4489 18.1533 63.6889 17.7C63.9289 17.2333 64.3022 16.84 64.8089 16.52C65.3156 16.2 65.9622 15.9733 66.7489 15.84L70.9489 15.14V16.5L67.1089 17.14C66.3356 17.2733 65.7756 17.52 65.4289 17.88C65.0956 18.24 64.9289 18.6667 64.9289 19.16C64.9289 19.64 65.1156 20.0467 65.4889 20.38C65.8756 20.7133 66.3689 20.88 66.9689 20.88C67.7022 20.88 68.3422 20.7267 68.8889 20.42C69.4356 20.1 69.8622 19.6733 70.1689 19.14C70.4756 18.6067 70.6289 18.0133 70.6289 17.36V14.64C70.6289 14 70.3956 13.48 69.9289 13.08C69.4622 12.68 68.8556 12.48 68.1089 12.48C67.4556 12.48 66.8822 12.6467 66.3889 12.98C65.8956 13.3 65.5289 13.72 65.2889 14.24L63.9289 13.5C64.1289 13.0467 64.4422 12.6333 64.8689 12.26C65.3089 11.8867 65.8089 11.5933 66.3689 11.38C66.9289 11.1533 67.5089 11.04 68.1089 11.04C68.8956 11.04 69.5889 11.1933 70.1889 11.5C70.8022 11.8067 71.2756 12.2333 71.6089 12.78C71.9556 13.3133 72.1289 13.9333 72.1289 14.64V22H70.6289V19.86L70.8489 20.08C70.6622 20.48 70.3689 20.8467 69.9689 21.18C69.5822 21.5 69.1222 21.76 68.5889 21.96C68.0689 22.1467 67.4956 22.24 66.8689 22.24ZM74.8142 22V11.28H76.3142V13.04L76.1142 12.78C76.3675 12.2733 76.7475 11.8733 77.2542 11.58C77.7742 11.2867 78.4009 11.14 79.1342 11.14H79.8142V12.64H78.8742C78.1009 12.64 77.4809 12.88 77.0142 13.36C76.5475 13.84 76.3142 14.52 76.3142 15.4V22H74.8142Z" fill="#90A3BF"/>
<path d="M153.399 22.24C152.466 22.24 151.599 22.0667 150.799 21.72C149.999 21.36 149.319 20.8733 148.759 20.26C148.199 19.6467 147.786 18.94 147.519 18.14L149.519 17.3C149.879 18.22 150.406 18.9267 151.099 19.42C151.792 19.9133 152.592 20.16 153.499 20.16C154.032 20.16 154.499 20.08 154.899 19.92C155.299 19.7467 155.606 19.5067 155.819 19.2C156.046 18.8933 156.159 18.54 156.159 18.14C156.159 17.5933 156.006 17.16 155.699 16.84C155.392 16.52 154.939 16.2667 154.339 16.08L151.539 15.2C150.419 14.8533 149.566 14.3267 148.979 13.62C148.392 12.9 148.099 12.06 148.099 11.1C148.099 10.26 148.306 9.52667 148.719 8.9C149.132 8.26 149.699 7.76 150.419 7.4C151.152 7.04 151.986 6.86 152.919 6.86C153.812 6.86 154.626 7.02 155.359 7.34C156.092 7.64667 156.719 8.07333 157.239 8.62C157.772 9.16667 158.159 9.8 158.399 10.52L156.439 11.38C156.146 10.5933 155.686 9.98667 155.059 9.56C154.446 9.13333 153.732 8.92 152.919 8.92C152.426 8.92 151.992 9.00667 151.619 9.18C151.246 9.34 150.952 9.58 150.739 9.9C150.539 10.2067 150.439 10.5667 150.439 10.98C150.439 11.46 150.592 11.8867 150.899 12.26C151.206 12.6333 151.672 12.9133 152.299 13.1L154.899 13.92C156.086 14.28 156.979 14.8 157.579 15.48C158.179 16.1467 158.479 16.98 158.479 17.98C158.479 18.8067 158.259 19.54 157.819 20.18C157.392 20.82 156.799 21.3267 156.039 21.7C155.279 22.06 154.399 22.24 153.399 22.24ZM160.508 26V11.18H162.668V13.42L162.408 12.9C162.808 12.2867 163.342 11.8067 164.008 11.46C164.675 11.1133 165.435 10.94 166.288 10.94C167.315 10.94 168.235 11.1867 169.048 11.68C169.875 12.1733 170.522 12.8467 170.988 13.7C171.468 14.5533 171.708 15.5133 171.708 16.58C171.708 17.6467 171.468 18.6067 170.988 19.46C170.522 20.3133 169.882 20.9933 169.068 21.5C168.255 21.9933 167.328 22.24 166.288 22.24C165.448 22.24 164.682 22.0667 163.988 21.72C163.308 21.3733 162.782 20.8733 162.408 20.22L162.768 19.8V26H160.508ZM166.068 20.14C166.708 20.14 167.275 19.9867 167.768 19.68C168.262 19.3733 168.648 18.9533 168.928 18.42C169.222 17.8733 169.368 17.26 169.368 16.58C169.368 15.9 169.222 15.2933 168.928 14.76C168.648 14.2267 168.262 13.8067 167.768 13.5C167.275 13.1933 166.708 13.04 166.068 13.04C165.442 13.04 164.875 13.1933 164.368 13.5C163.875 13.8067 163.482 14.2267 163.188 14.76C162.908 15.2933 162.768 15.9 162.768 16.58C162.768 17.26 162.908 17.8733 163.188 18.42C163.482 18.9533 163.875 19.3733 164.368 19.68C164.875 19.9867 165.442 20.14 166.068 20.14ZM178.727 22.24C177.687 22.24 176.733 21.9933 175.867 21.5C175.013 21.0067 174.333 20.3333 173.827 19.48C173.32 18.6267 173.067 17.66 173.067 16.58C173.067 15.4867 173.32 14.52 173.827 13.68C174.333 12.8267 175.013 12.16 175.867 11.68C176.72 11.1867 177.673 10.94 178.727 10.94C179.793 10.94 180.747 11.1867 181.587 11.68C182.44 12.16 183.113 12.8267 183.607 13.68C184.113 14.52 184.367 15.4867 184.367 16.58C184.367 17.6733 184.113 18.6467 183.607 19.5C183.1 20.3533 182.42 21.0267 181.567 21.52C180.713 22 179.767 22.24 178.727 22.24ZM178.727 20.14C179.367 20.14 179.933 19.9867 180.427 19.68C180.92 19.3733 181.307 18.9533 181.587 18.42C181.88 17.8733 182.027 17.26 182.027 16.58C182.027 15.9 181.88 15.2933 181.587 14.76C181.307 14.2267 180.92 13.8067 180.427 13.5C179.933 13.1933 179.367 13.04 178.727 13.04C178.1 13.04 177.533 13.1933 177.027 13.5C176.533 13.8067 176.14 14.2267 175.847 14.76C175.567 15.2933 175.427 15.9 175.427 16.58C175.427 17.26 175.567 17.8733 175.847 18.42C176.14 18.9533 176.533 19.3733 177.027 19.68C177.533 19.9867 178.1 20.14 178.727 20.14ZM186.173 22V11.18H188.333V13.36L188.133 13.04C188.373 12.3333 188.76 11.8267 189.293 11.52C189.826 11.2 190.466 11.04 191.213 11.04H191.873V13.1H190.933C190.186 13.1 189.58 13.3333 189.113 13.8C188.66 14.2533 188.433 14.9067 188.433 15.76V22H186.173ZM197.895 22.12C196.761 22.12 195.881 21.8 195.255 21.16C194.628 20.52 194.315 19.62 194.315 18.46V13.22H192.415V11.18H192.715C193.221 11.18 193.615 11.0333 193.895 10.74C194.175 10.4467 194.315 10.0467 194.315 9.54V8.7H196.575V11.18H199.035V13.22H196.575V18.36C196.575 18.7333 196.635 19.0533 196.755 19.32C196.875 19.5733 197.068 19.7733 197.335 19.92C197.601 20.0533 197.948 20.12 198.375 20.12C198.481 20.12 198.601 20.1133 198.735 20.1C198.868 20.0867 198.995 20.0733 199.115 20.06V22C198.928 22.0267 198.721 22.0533 198.495 22.08C198.268 22.1067 198.068 22.12 197.895 22.12Z" fill="#596780"/>
<path d="M6.78 66.24C5.83333 66.24 4.97333 66.06 4.2 65.7C3.42667 65.34 2.77333 64.86 2.24 64.26C1.70667 63.6467 1.32667 62.9733 1.1 62.24L2.54 61.7C2.88667 62.7133 3.42667 63.4867 4.16 64.02C4.89333 64.54 5.76667 64.8 6.78 64.8C7.42 64.8 7.98 64.7 8.46 64.5C8.95333 64.2867 9.33333 63.9933 9.6 63.62C9.86667 63.2467 10 62.8133 10 62.32C10 61.5867 9.8 61.02 9.4 60.62C9 60.22 8.42667 59.9133 7.68 59.7L5 58.9C3.94667 58.5933 3.13333 58.08 2.56 57.36C2 56.64 1.72 55.82 1.72 54.9C1.72 54.1133 1.91333 53.42 2.3 52.82C2.68667 52.2067 3.21333 51.7267 3.88 51.38C4.56 51.0333 5.32667 50.86 6.18 50.86C7.07333 50.86 7.87333 51.0267 8.58 51.36C9.3 51.68 9.90667 52.1067 10.4 52.64C10.8933 53.1733 11.2467 53.7667 11.46 54.42L10.06 54.98C9.74 54.1 9.24 53.4333 8.56 52.98C7.89333 52.5267 7.10667 52.3 6.2 52.3C5.62667 52.3 5.12 52.4 4.68 52.6C4.25333 52.8 3.92 53.0867 3.68 53.46C3.44 53.8333 3.32 54.2733 3.32 54.78C3.32 55.3933 3.51333 55.9467 3.9 56.44C4.28667 56.92 4.88 57.28 5.68 57.52L8.04 58.22C9.21333 58.5667 10.1 59.0667 10.7 59.72C11.3 60.3733 11.6 61.1933 11.6 62.18C11.6 62.98 11.3933 63.6867 10.98 64.3C10.58 64.9 10.0133 65.3733 9.28 65.72C8.56 66.0667 7.72667 66.24 6.78 66.24ZM18.1697 66.12C17.2097 66.12 16.4697 65.84 15.9497 65.28C15.4297 64.72 15.1697 63.92 15.1697 62.88V56.78H13.1897V55.28H13.6897C14.143 55.28 14.503 55.1333 14.7697 54.84C15.0364 54.5333 15.1697 54.1533 15.1697 53.7V52.8H16.6697V55.28H19.0297V56.78H16.6697V62.88C16.6697 63.24 16.723 63.56 16.8297 63.84C16.9364 64.1067 17.1164 64.32 17.3697 64.48C17.6364 64.64 17.9897 64.72 18.4297 64.72C18.5364 64.72 18.663 64.7133 18.8097 64.7C18.9564 64.6867 19.083 64.6733 19.1897 64.66V66C19.0297 66.04 18.8497 66.0667 18.6497 66.08C18.4497 66.1067 18.2897 66.12 18.1697 66.12ZM25.913 66.24C24.913 66.24 24.0063 66 23.193 65.52C22.393 65.0267 21.7596 64.3533 21.293 63.5C20.8263 62.6467 20.593 61.68 20.593 60.6C20.593 59.52 20.8196 58.5667 21.273 57.74C21.7263 56.9 22.3396 56.24 23.113 55.76C23.8996 55.28 24.7796 55.04 25.753 55.04C26.5263 55.04 27.213 55.1867 27.813 55.48C28.4263 55.76 28.9463 56.1467 29.373 56.64C29.7996 57.12 30.1263 57.6667 30.353 58.28C30.5796 58.88 30.693 59.5 30.693 60.14C30.693 60.2733 30.6863 60.4267 30.673 60.6C30.6596 60.76 30.6396 60.9267 30.613 61.1H21.553V59.7H29.753L29.033 60.3C29.153 59.5667 29.0663 58.9133 28.773 58.34C28.493 57.7533 28.0863 57.2933 27.553 56.96C27.0196 56.6133 26.4196 56.44 25.753 56.44C25.0863 56.44 24.4663 56.6133 23.893 56.96C23.333 57.3067 22.893 57.7933 22.573 58.42C22.253 59.0333 22.1263 59.7667 22.193 60.62C22.1263 61.4733 22.2596 62.22 22.593 62.86C22.9396 63.4867 23.4063 63.9733 23.993 64.32C24.593 64.6667 25.233 64.84 25.913 64.84C26.6996 64.84 27.3596 64.6533 27.893 64.28C28.4263 63.9067 28.8596 63.44 29.193 62.88L30.473 63.56C30.2596 64.04 29.933 64.4867 29.493 64.9C29.053 65.3 28.5263 65.6267 27.913 65.88C27.313 66.12 26.6463 66.24 25.913 66.24ZM37.8177 66.24C36.8177 66.24 35.911 66 35.0977 65.52C34.2977 65.0267 33.6643 64.3533 33.1977 63.5C32.731 62.6467 32.4977 61.68 32.4977 60.6C32.4977 59.52 32.7243 58.5667 33.1777 57.74C33.631 56.9 34.2443 56.24 35.0177 55.76C35.8043 55.28 36.6843 55.04 37.6577 55.04C38.431 55.04 39.1177 55.1867 39.7177 55.48C40.331 55.76 40.851 56.1467 41.2777 56.64C41.7043 57.12 42.031 57.6667 42.2577 58.28C42.4843 58.88 42.5977 59.5 42.5977 60.14C42.5977 60.2733 42.591 60.4267 42.5777 60.6C42.5643 60.76 42.5443 60.9267 42.5177 61.1H33.4577V59.7H41.6577L40.9377 60.3C41.0577 59.5667 40.971 58.9133 40.6777 58.34C40.3977 57.7533 39.991 57.2933 39.4577 56.96C38.9243 56.6133 38.3243 56.44 37.6577 56.44C36.991 56.44 36.371 56.6133 35.7977 56.96C35.2377 57.3067 34.7977 57.7933 34.4777 58.42C34.1577 59.0333 34.031 59.7667 34.0977 60.62C34.031 61.4733 34.1643 62.22 34.4977 62.86C34.8443 63.4867 35.311 63.9733 35.8977 64.32C36.4977 64.6667 37.1377 64.84 37.8177 64.84C38.6043 64.84 39.2643 64.6533 39.7977 64.28C40.331 63.9067 40.7643 63.44 41.0977 62.88L42.3777 63.56C42.1643 64.04 41.8377 64.4867 41.3977 64.9C40.9577 65.3 40.431 65.6267 39.8177 65.88C39.2177 66.12 38.551 66.24 37.8177 66.24ZM44.8423 66V55.28H46.3423V57.04L46.1423 56.78C46.3957 56.2733 46.7757 55.8733 47.2823 55.58C47.8023 55.2867 48.429 55.14 49.1623 55.14H49.8423V56.64H48.9023C48.129 56.64 47.509 56.88 47.0423 57.36C46.5757 57.84 46.3423 58.52 46.3423 59.4V66H44.8423ZM51.2002 66V55.28H52.7002V66H51.2002ZM51.2002 53.3V51.1H52.7002V53.3H51.2002ZM55.3705 66V55.28H56.8705V57.36L56.5305 57.28C56.7971 56.5867 57.2305 56.04 57.8305 55.64C58.4438 55.24 59.1505 55.04 59.9505 55.04C60.7105 55.04 61.3905 55.2133 61.9905 55.56C62.6038 55.9067 63.0838 56.3867 63.4305 57C63.7905 57.6 63.9705 58.28 63.9705 59.04V66H62.4705V59.62C62.4705 58.9667 62.3505 58.4133 62.1105 57.96C61.8838 57.5067 61.5571 57.16 61.1305 56.92C60.7171 56.6667 60.2371 56.54 59.6905 56.54C59.1438 56.54 58.6571 56.6667 58.2305 56.92C57.8038 57.16 57.4705 57.5133 57.2305 57.98C56.9905 58.4333 56.8705 58.98 56.8705 59.62V66H55.3705ZM71.5153 70.4C70.782 70.4 70.102 70.2867 69.4753 70.06C68.862 69.8333 68.3286 69.52 67.8753 69.12C67.4353 68.7333 67.0953 68.28 66.8553 67.76L68.2353 67.02C68.4486 67.5267 68.8286 67.9667 69.3753 68.34C69.922 68.7133 70.622 68.9 71.4753 68.9C72.1286 68.9 72.7286 68.7733 73.2753 68.52C73.822 68.2667 74.262 67.8933 74.5953 67.4C74.9286 66.9067 75.0953 66.3 75.0953 65.58V63.2L75.3353 63.42C74.962 64.1933 74.4086 64.7933 73.6753 65.22C72.942 65.6333 72.142 65.84 71.2753 65.84C70.2753 65.84 69.3753 65.6 68.5753 65.12C67.7753 64.64 67.142 63.9933 66.6753 63.18C66.222 62.3533 65.9953 61.44 65.9953 60.44C65.9953 59.4267 66.222 58.5133 66.6753 57.7C67.142 56.8867 67.7686 56.24 68.5553 55.76C69.3553 55.28 70.262 55.04 71.2753 55.04C72.142 55.04 72.9286 55.24 73.6353 55.64C74.3553 56.04 74.922 56.58 75.3353 57.26L75.0953 57.68V55.28H76.5953V65.58C76.5953 66.5 76.3753 67.32 75.9353 68.04C75.5086 68.7733 74.9086 69.3467 74.1353 69.76C73.3753 70.1867 72.502 70.4 71.5153 70.4ZM71.3553 64.34C72.0486 64.34 72.6753 64.1667 73.2353 63.82C73.7953 63.46 74.242 62.9867 74.5753 62.4C74.922 61.8 75.0953 61.1467 75.0953 60.44C75.0953 59.7333 74.922 59.0867 74.5753 58.5C74.242 57.9 73.7953 57.4267 73.2353 57.08C72.6753 56.72 72.0486 56.54 71.3553 56.54C70.6486 56.54 70.0086 56.72 69.4353 57.08C68.862 57.4267 68.4086 57.8933 68.0753 58.48C67.7553 59.0667 67.5953 59.72 67.5953 60.44C67.5953 61.1467 67.7553 61.8 68.0753 62.4C68.4086 62.9867 68.8553 63.46 69.4153 63.82C69.9886 64.1667 70.6353 64.34 71.3553 64.34Z" fill="#90A3BF"/>
<path d="M134.595 66V51.1H136.795L142.395 58.86H141.295L146.795 51.1H148.995V66H146.655V53.88L147.535 54.12L141.915 61.8H141.675L136.175 54.12L136.955 53.88V66H134.595ZM154.695 66.24C153.962 66.24 153.315 66.1133 152.755 65.86C152.208 65.5933 151.782 65.2333 151.475 64.78C151.168 64.3133 151.015 63.7667 151.015 63.14C151.015 62.5533 151.142 62.0267 151.395 61.56C151.662 61.0933 152.068 60.7 152.615 60.38C153.162 60.06 153.848 59.8333 154.675 59.7L158.435 59.08V60.86L155.115 61.44C154.515 61.5467 154.075 61.74 153.795 62.02C153.515 62.2867 153.375 62.6333 153.375 63.06C153.375 63.4733 153.528 63.8133 153.835 64.08C154.155 64.3333 154.562 64.46 155.055 64.46C155.668 64.46 156.202 64.3267 156.655 64.06C157.122 63.7933 157.482 63.44 157.735 63C157.988 62.5467 158.115 62.0467 158.115 61.5V58.72C158.115 58.1867 157.915 57.7533 157.515 57.42C157.128 57.0733 156.608 56.9 155.955 56.9C155.355 56.9 154.828 57.06 154.375 57.38C153.935 57.6867 153.608 58.0867 153.395 58.58L151.515 57.64C151.715 57.1067 152.042 56.64 152.495 56.24C152.948 55.8267 153.475 55.5067 154.075 55.28C154.688 55.0533 155.335 54.94 156.015 54.94C156.868 54.94 157.622 55.1 158.275 55.42C158.942 55.74 159.455 56.1867 159.815 56.76C160.188 57.32 160.375 57.9733 160.375 58.72V66H158.215V64.04L158.675 64.1C158.422 64.54 158.095 64.92 157.695 65.24C157.308 65.56 156.862 65.8067 156.355 65.98C155.862 66.1533 155.308 66.24 154.695 66.24ZM162.618 66V55.18H164.778V57.3L164.518 57.02C164.784 56.34 165.211 55.8267 165.798 55.48C166.384 55.12 167.064 54.94 167.838 54.94C168.638 54.94 169.344 55.1133 169.958 55.46C170.571 55.8067 171.051 56.2867 171.398 56.9C171.744 57.5133 171.918 58.22 171.918 59.02V66H169.678V59.62C169.678 59.0733 169.578 58.6133 169.378 58.24C169.178 57.8533 168.891 57.56 168.518 57.36C168.158 57.1467 167.744 57.04 167.278 57.04C166.811 57.04 166.391 57.1467 166.018 57.36C165.658 57.56 165.378 57.8533 165.178 58.24C164.978 58.6267 164.878 59.0867 164.878 59.62V66H162.618ZM177.796 66.24C176.983 66.24 176.27 66.06 175.656 65.7C175.043 65.3267 174.563 64.8133 174.216 64.16C173.883 63.4933 173.716 62.7267 173.716 61.86V55.18H175.976V61.66C175.976 62.1533 176.076 62.5867 176.276 62.96C176.476 63.3333 176.756 63.6267 177.116 63.84C177.476 64.04 177.89 64.14 178.356 64.14C178.836 64.14 179.256 64.0333 179.616 63.82C179.976 63.6067 180.256 63.3067 180.456 62.92C180.67 62.5333 180.776 62.08 180.776 61.56V55.18H183.016V66H180.876V63.88L181.116 64.16C180.863 64.8267 180.443 65.34 179.856 65.7C179.27 66.06 178.583 66.24 177.796 66.24ZM188.495 66.24C187.762 66.24 187.115 66.1133 186.555 65.86C186.008 65.5933 185.582 65.2333 185.275 64.78C184.968 64.3133 184.815 63.7667 184.815 63.14C184.815 62.5533 184.942 62.0267 185.195 61.56C185.462 61.0933 185.868 60.7 186.415 60.38C186.962 60.06 187.648 59.8333 188.475 59.7L192.235 59.08V60.86L188.915 61.44C188.315 61.5467 187.875 61.74 187.595 62.02C187.315 62.2867 187.175 62.6333 187.175 63.06C187.175 63.4733 187.328 63.8133 187.635 64.08C187.955 64.3333 188.362 64.46 188.855 64.46C189.468 64.46 190.002 64.3267 190.455 64.06C190.922 63.7933 191.282 63.44 191.535 63C191.788 62.5467 191.915 62.0467 191.915 61.5V58.72C191.915 58.1867 191.715 57.7533 191.315 57.42C190.928 57.0733 190.408 56.9 189.755 56.9C189.155 56.9 188.628 57.06 188.175 57.38C187.735 57.6867 187.408 58.0867 187.195 58.58L185.315 57.64C185.515 57.1067 185.842 56.64 186.295 56.24C186.748 55.8267 187.275 55.5067 187.875 55.28C188.488 55.0533 189.135 54.94 189.815 54.94C190.668 54.94 191.422 55.1 192.075 55.42C192.742 55.74 193.255 56.1867 193.615 56.76C193.988 57.32 194.175 57.9733 194.175 58.72V66H192.015V64.04L192.475 64.1C192.222 64.54 191.895 64.92 191.495 65.24C191.108 65.56 190.662 65.8067 190.155 65.98C189.662 66.1533 189.108 66.24 188.495 66.24ZM196.418 66V50.86H198.678V66H196.418Z" fill="#596780"/>
<path d="M252.56 22.24C251.507 22.24 250.54 22.0533 249.66 21.68C248.78 21.2933 248.013 20.76 247.36 20.08C246.72 19.3867 246.22 18.5733 245.86 17.64C245.5 16.7067 245.32 15.68 245.32 14.56C245.32 13.44 245.5 12.4133 245.86 11.48C246.22 10.5467 246.72 9.73333 247.36 9.04C248.013 8.34667 248.78 7.81333 249.66 7.44C250.54 7.05333 251.507 6.86 252.56 6.86C253.573 6.86 254.48 7.04 255.28 7.4C256.093 7.76 256.773 8.22667 257.32 8.8C257.88 9.36 258.28 9.95333 258.52 10.58L257.02 11.24C256.647 10.3733 256.073 9.68 255.3 9.16C254.54 8.62667 253.627 8.36 252.56 8.36C251.467 8.36 250.493 8.62 249.64 9.14C248.787 9.66 248.12 10.3867 247.64 11.32C247.16 12.24 246.92 13.32 246.92 14.56C246.92 15.7867 247.16 16.8667 247.64 17.8C248.12 18.7333 248.787 19.46 249.64 19.98C250.493 20.4867 251.467 20.74 252.56 20.74C253.627 20.74 254.54 20.48 255.3 19.96C256.073 19.44 256.647 18.7467 257.02 17.88L258.52 18.54C258.28 19.1533 257.88 19.7467 257.32 20.32C256.773 20.88 256.093 21.34 255.28 21.7C254.48 22.06 253.573 22.24 252.56 22.24ZM263.67 22.24C262.99 22.24 262.383 22.1133 261.85 21.86C261.316 21.5933 260.896 21.2333 260.59 20.78C260.283 20.3267 260.13 19.8067 260.13 19.22C260.13 18.66 260.25 18.1533 260.49 17.7C260.73 17.2333 261.103 16.84 261.61 16.52C262.116 16.2 262.763 15.9733 263.55 15.84L267.75 15.14V16.5L263.91 17.14C263.136 17.2733 262.576 17.52 262.23 17.88C261.896 18.24 261.73 18.6667 261.73 19.16C261.73 19.64 261.916 20.0467 262.29 20.38C262.676 20.7133 263.17 20.88 263.77 20.88C264.503 20.88 265.143 20.7267 265.69 20.42C266.236 20.1 266.663 19.6733 266.97 19.14C267.276 18.6067 267.43 18.0133 267.43 17.36V14.64C267.43 14 267.196 13.48 266.73 13.08C266.263 12.68 265.656 12.48 264.91 12.48C264.256 12.48 263.683 12.6467 263.19 12.98C262.696 13.3 262.33 13.72 262.09 14.24L260.73 13.5C260.93 13.0467 261.243 12.6333 261.67 12.26C262.11 11.8867 262.61 11.5933 263.17 11.38C263.73 11.1533 264.31 11.04 264.91 11.04C265.696 11.04 266.39 11.1933 266.99 11.5C267.603 11.8067 268.076 12.2333 268.41 12.78C268.756 13.3133 268.93 13.9333 268.93 14.64V22H267.43V19.86L267.65 20.08C267.463 20.48 267.17 20.8467 266.77 21.18C266.383 21.5 265.923 21.76 265.39 21.96C264.87 22.1467 264.296 22.24 263.67 22.24ZM271.615 26V11.28H273.115V13.68L272.875 13.26C273.302 12.58 273.868 12.04 274.575 11.64C275.295 11.24 276.115 11.04 277.035 11.04C278.048 11.04 278.948 11.2867 279.735 11.78C280.535 12.26 281.162 12.92 281.615 13.76C282.082 14.6 282.315 15.56 282.315 16.64C282.315 17.7067 282.082 18.6667 281.615 19.52C281.162 20.36 280.535 21.0267 279.735 21.52C278.948 22 278.048 22.24 277.035 22.24C276.115 22.24 275.282 22.0333 274.535 21.62C273.802 21.1933 273.248 20.5933 272.875 19.82L273.115 19.6V26H271.615ZM276.955 20.74C277.675 20.74 278.315 20.56 278.875 20.2C279.448 19.84 279.895 19.3533 280.215 18.74C280.548 18.1133 280.715 17.4133 280.715 16.64C280.715 15.8533 280.548 15.1533 280.215 14.54C279.895 13.9267 279.448 13.44 278.875 13.08C278.315 12.72 277.675 12.54 276.955 12.54C276.235 12.54 275.582 12.72 274.995 13.08C274.422 13.44 273.962 13.9333 273.615 14.56C273.282 15.1733 273.115 15.8667 273.115 16.64C273.115 17.4133 273.282 18.1133 273.615 18.74C273.962 19.3533 274.422 19.84 274.995 20.2C275.582 20.56 276.235 20.74 276.955 20.74ZM287.655 22.24C286.975 22.24 286.368 22.1133 285.835 21.86C285.302 21.5933 284.882 21.2333 284.575 20.78C284.268 20.3267 284.115 19.8067 284.115 19.22C284.115 18.66 284.235 18.1533 284.475 17.7C284.715 17.2333 285.088 16.84 285.595 16.52C286.102 16.2 286.748 15.9733 287.535 15.84L291.735 15.14V16.5L287.895 17.14C287.122 17.2733 286.562 17.52 286.215 17.88C285.882 18.24 285.715 18.6667 285.715 19.16C285.715 19.64 285.902 20.0467 286.275 20.38C286.662 20.7133 287.155 20.88 287.755 20.88C288.488 20.88 289.128 20.7267 289.675 20.42C290.222 20.1 290.648 19.6733 290.955 19.14C291.262 18.6067 291.415 18.0133 291.415 17.36V14.64C291.415 14 291.182 13.48 290.715 13.08C290.248 12.68 289.642 12.48 288.895 12.48C288.242 12.48 287.668 12.6467 287.175 12.98C286.682 13.3 286.315 13.72 286.075 14.24L284.715 13.5C284.915 13.0467 285.228 12.6333 285.655 12.26C286.095 11.8867 286.595 11.5933 287.155 11.38C287.715 11.1533 288.295 11.04 288.895 11.04C289.682 11.04 290.375 11.1933 290.975 11.5C291.588 11.8067 292.062 12.2333 292.395 12.78C292.742 13.3133 292.915 13.9333 292.915 14.64V22H291.415V19.86L291.635 20.08C291.448 20.48 291.155 20.8467 290.755 21.18C290.368 21.5 289.908 21.76 289.375 21.96C288.855 22.1467 288.282 22.24 287.655 22.24ZM300.5 22.24C299.447 22.24 298.52 21.9933 297.72 21.5C296.92 21.0067 296.293 20.34 295.84 19.5C295.387 18.6467 295.16 17.6867 295.16 16.62C295.16 15.5533 295.387 14.6 295.84 13.76C296.293 12.92 296.92 12.26 297.72 11.78C298.52 11.2867 299.447 11.04 300.5 11.04C301.167 11.04 301.793 11.16 302.38 11.4C302.967 11.64 303.487 11.9667 303.94 12.38C304.393 12.78 304.733 13.2467 304.96 13.78L303.6 14.48C303.333 13.9067 302.927 13.44 302.38 13.08C301.833 12.72 301.207 12.54 300.5 12.54C299.793 12.54 299.153 12.72 298.58 13.08C298.02 13.4267 297.573 13.9133 297.24 14.54C296.92 15.1533 296.76 15.8533 296.76 16.64C296.76 17.4133 296.92 18.1133 297.24 18.74C297.573 19.3533 298.02 19.84 298.58 20.2C299.153 20.56 299.793 20.74 300.5 20.74C301.207 20.74 301.827 20.56 302.36 20.2C302.907 19.84 303.32 19.36 303.6 18.76L304.96 19.5C304.733 20.02 304.393 20.4867 303.94 20.9C303.487 21.3133 302.967 21.64 302.38 21.88C301.793 22.12 301.167 22.24 300.5 22.24ZM307.192 22V11.28H308.692V22H307.192ZM307.192 9.3V7.1H308.692V9.3H307.192ZM315.463 22.12C314.503 22.12 313.763 21.84 313.243 21.28C312.723 20.72 312.463 19.92 312.463 18.88V12.78H310.483V11.28H310.983C311.436 11.28 311.796 11.1333 312.063 10.84C312.329 10.5333 312.463 10.1533 312.463 9.7V8.8H313.963V11.28H316.323V12.78H313.963V18.88C313.963 19.24 314.016 19.56 314.123 19.84C314.229 20.1067 314.409 20.32 314.663 20.48C314.929 20.64 315.283 20.72 315.723 20.72C315.829 20.72 315.956 20.7133 316.103 20.7C316.249 20.6867 316.376 20.6733 316.483 20.66V22C316.323 22.04 316.143 22.0667 315.943 22.08C315.743 22.1067 315.583 22.12 315.463 22.12ZM318.937 26.4C318.723 26.4 318.503 26.38 318.277 26.34C318.063 26.3133 317.85 26.26 317.637 26.18V24.78C317.77 24.7933 317.937 24.8133 318.137 24.84C318.35 24.88 318.563 24.9 318.777 24.9C319.43 24.9 319.93 24.76 320.277 24.48C320.623 24.2133 320.963 23.6933 321.297 22.92L321.977 21.32L321.937 22.64L317.397 11.28H319.017L322.737 20.66H322.317L326.017 11.28H327.677L322.777 23.36C322.563 23.88 322.29 24.3733 321.957 24.84C321.637 25.3067 321.23 25.68 320.737 25.96C320.243 26.2533 319.643 26.4 318.937 26.4Z" fill="#90A3BF"/>
<path d="M365.28 22V20.3L369.36 15.94C370.16 15.0867 370.787 14.4 371.24 13.88C371.707 13.3467 372.04 12.88 372.24 12.48C372.454 12.08 372.56 11.66 372.56 11.22C372.56 10.5 372.34 9.94667 371.9 9.56C371.46 9.16 370.894 8.96 370.2 8.96C369.48 8.96 368.86 9.16667 368.34 9.58C367.82 9.98 367.46 10.5667 367.26 11.34L365.18 10.74C365.34 9.95333 365.66 9.27333 366.14 8.7C366.62 8.11333 367.207 7.66 367.9 7.34C368.607 7.02 369.367 6.86 370.18 6.86C371.127 6.86 371.954 7.04 372.66 7.4C373.367 7.74667 373.914 8.23333 374.3 8.86C374.7 9.48667 374.9 10.2133 374.9 11.04C374.9 11.5867 374.794 12.12 374.58 12.64C374.38 13.1467 374.067 13.6867 373.64 14.26C373.214 14.82 372.667 15.4533 372 16.16L368.4 20H375.18V22H365.28ZM380.47 22V7.1H385.89C386.89 7.1 387.77 7.28667 388.53 7.66C389.303 8.02 389.903 8.55333 390.33 9.26C390.756 9.95333 390.97 10.7867 390.97 11.76C390.97 12.72 390.75 13.5467 390.31 14.24C389.883 14.9333 389.29 15.4667 388.53 15.84C387.77 16.2133 386.89 16.4 385.89 16.4H382.83V22H380.47ZM382.83 14.3H385.95C386.483 14.3 386.95 14.1933 387.35 13.98C387.75 13.7667 388.063 13.4733 388.29 13.1C388.516 12.7133 388.63 12.26 388.63 11.74C388.63 11.22 388.516 10.7733 388.29 10.4C388.063 10.0133 387.75 9.72 387.35 9.52C386.95 9.30667 386.483 9.2 385.95 9.2H382.83V14.3ZM397.469 22.24C396.389 22.24 395.429 21.9933 394.589 21.5C393.762 20.9933 393.115 20.3133 392.649 19.46C392.182 18.5933 391.949 17.6267 391.949 16.56C391.949 15.4667 392.182 14.5 392.649 13.66C393.129 12.82 393.769 12.16 394.569 11.68C395.369 11.1867 396.275 10.94 397.289 10.94C398.102 10.94 398.829 11.08 399.469 11.36C400.109 11.64 400.649 12.0267 401.089 12.52C401.529 13 401.862 13.5533 402.089 14.18C402.329 14.8067 402.449 15.4733 402.449 16.18C402.449 16.3533 402.442 16.5333 402.429 16.72C402.415 16.9067 402.389 17.08 402.349 17.24H393.729V15.44H401.069L399.989 16.26C400.122 15.6067 400.075 15.0267 399.849 14.52C399.635 14 399.302 13.5933 398.849 13.3C398.409 12.9933 397.889 12.84 397.289 12.84C396.689 12.84 396.155 12.9933 395.689 13.3C395.222 13.5933 394.862 14.02 394.609 14.58C394.355 15.1267 394.255 15.7933 394.309 16.58C394.242 17.3133 394.342 17.9533 394.609 18.5C394.889 19.0467 395.275 19.4733 395.769 19.78C396.275 20.0867 396.849 20.24 397.489 20.24C398.142 20.24 398.695 20.0933 399.149 19.8C399.615 19.5067 399.982 19.1267 400.249 18.66L402.089 19.56C401.875 20.0667 401.542 20.5267 401.089 20.94C400.649 21.34 400.115 21.66 399.489 21.9C398.875 22.1267 398.202 22.24 397.469 22.24ZM404.254 22V11.18H406.414V13.36L406.214 13.04C406.454 12.3333 406.841 11.8267 407.374 11.52C407.908 11.2 408.548 11.04 409.294 11.04H409.954V13.1H409.014C408.268 13.1 407.661 13.3333 407.194 13.8C406.741 14.2533 406.514 14.9067 406.514 15.76V22H404.254ZM415.1 22.24C413.994 22.24 413.02 21.9667 412.18 21.42C411.354 20.8733 410.774 20.14 410.44 19.22L412.18 18.4C412.474 19.0133 412.874 19.5 413.38 19.86C413.9 20.22 414.474 20.4 415.1 20.4C415.634 20.4 416.067 20.28 416.4 20.04C416.734 19.8 416.9 19.4733 416.9 19.06C416.9 18.7933 416.827 18.58 416.68 18.42C416.534 18.2467 416.347 18.1067 416.12 18C415.907 17.8933 415.687 17.8133 415.46 17.76L413.76 17.28C412.827 17.0133 412.127 16.6133 411.66 16.08C411.207 15.5333 410.98 14.9 410.98 14.18C410.98 13.5267 411.147 12.96 411.48 12.48C411.814 11.9867 412.274 11.6067 412.86 11.34C413.447 11.0733 414.107 10.94 414.84 10.94C415.827 10.94 416.707 11.1867 417.48 11.68C418.254 12.16 418.8 12.8333 419.12 13.7L417.38 14.52C417.167 14 416.827 13.5867 416.36 13.28C415.907 12.9733 415.394 12.82 414.82 12.82C414.327 12.82 413.934 12.94 413.64 13.18C413.347 13.4067 413.2 13.7067 413.2 14.08C413.2 14.3333 413.267 14.5467 413.4 14.72C413.534 14.88 413.707 15.0133 413.92 15.12C414.134 15.2133 414.354 15.2933 414.58 15.36L416.34 15.88C417.234 16.1333 417.92 16.5333 418.4 17.08C418.88 17.6133 419.12 18.2533 419.12 19C419.12 19.64 418.947 20.2067 418.6 20.7C418.267 21.18 417.8 21.56 417.2 21.84C416.6 22.1067 415.9 22.24 415.1 22.24ZM426.155 22.24C425.115 22.24 424.162 21.9933 423.295 21.5C422.442 21.0067 421.762 20.3333 421.255 19.48C420.748 18.6267 420.495 17.66 420.495 16.58C420.495 15.4867 420.748 14.52 421.255 13.68C421.762 12.8267 422.442 12.16 423.295 11.68C424.148 11.1867 425.102 10.94 426.155 10.94C427.222 10.94 428.175 11.1867 429.015 11.68C429.868 12.16 430.542 12.8267 431.035 13.68C431.542 14.52 431.795 15.4867 431.795 16.58C431.795 17.6733 431.542 18.6467 431.035 19.5C430.528 20.3533 429.848 21.0267 428.995 21.52C428.142 22 427.195 22.24 426.155 22.24ZM426.155 20.14C426.795 20.14 427.362 19.9867 427.855 19.68C428.348 19.3733 428.735 18.9533 429.015 18.42C429.308 17.8733 429.455 17.26 429.455 16.58C429.455 15.9 429.308 15.2933 429.015 14.76C428.735 14.2267 428.348 13.8067 427.855 13.5C427.362 13.1933 426.795 13.04 426.155 13.04C425.528 13.04 424.962 13.1933 424.455 13.5C423.962 13.8067 423.568 14.2267 423.275 14.76C422.995 15.2933 422.855 15.9 422.855 16.58C422.855 17.26 422.995 17.8733 423.275 18.42C423.568 18.9533 423.962 19.3733 424.455 19.68C424.962 19.9867 425.528 20.14 426.155 20.14ZM433.601 22V11.18H435.761V13.3L435.501 13.02C435.768 12.34 436.195 11.8267 436.781 11.48C437.368 11.12 438.048 10.94 438.821 10.94C439.621 10.94 440.328 11.1133 440.941 11.46C441.555 11.8067 442.035 12.2867 442.381 12.9C442.728 13.5133 442.901 14.22 442.901 15.02V22H440.661V15.62C440.661 15.0733 440.561 14.6133 440.361 14.24C440.161 13.8533 439.875 13.56 439.501 13.36C439.141 13.1467 438.728 13.04 438.261 13.04C437.795 13.04 437.375 13.1467 437.001 13.36C436.641 13.56 436.361 13.8533 436.161 14.24C435.961 14.6267 435.861 15.0867 435.861 15.62V22H433.601Z" fill="#596780"/>
<path d="M252.56 66.24C251.507 66.24 250.54 66.0533 249.66 65.68C248.78 65.2933 248.013 64.76 247.36 64.08C246.72 63.3867 246.22 62.5733 245.86 61.64C245.5 60.7067 245.32 59.68 245.32 58.56C245.32 57.44 245.5 56.4133 245.86 55.48C246.22 54.5467 246.72 53.7333 247.36 53.04C248.013 52.3467 248.78 51.8133 249.66 51.44C250.54 51.0533 251.507 50.86 252.56 50.86C253.573 50.86 254.48 51.04 255.28 51.4C256.093 51.76 256.773 52.2267 257.32 52.8C257.88 53.36 258.28 53.9533 258.52 54.58L257.08 55.28C256.707 54.3733 256.133 53.66 255.36 53.14C254.587 52.62 253.653 52.36 252.56 52.36C251.467 52.36 250.493 52.62 249.64 53.14C248.787 53.66 248.12 54.3867 247.64 55.32C247.16 56.24 246.92 57.32 246.92 58.56C246.92 59.7867 247.16 60.8667 247.64 61.8C248.12 62.7333 248.787 63.46 249.64 63.98C250.493 64.4867 251.467 64.74 252.56 64.74C253.533 64.74 254.407 64.5267 255.18 64.1C255.967 63.6733 256.587 63.0933 257.04 62.36C257.493 61.6133 257.72 60.76 257.72 59.8V58.98L258.44 59.7H252.56V58.3H259.32V59.54C259.32 60.5133 259.147 61.4133 258.8 62.24C258.453 63.0533 257.973 63.76 257.36 64.36C256.747 64.96 256.027 65.4267 255.2 65.76C254.387 66.08 253.507 66.24 252.56 66.24ZM264.666 66.24C263.986 66.24 263.379 66.1133 262.846 65.86C262.312 65.5933 261.892 65.2333 261.586 64.78C261.279 64.3267 261.126 63.8067 261.126 63.22C261.126 62.66 261.246 62.1533 261.486 61.7C261.726 61.2333 262.099 60.84 262.606 60.52C263.112 60.2 263.759 59.9733 264.546 59.84L268.746 59.14V60.5L264.906 61.14C264.132 61.2733 263.572 61.52 263.226 61.88C262.892 62.24 262.726 62.6667 262.726 63.16C262.726 63.64 262.912 64.0467 263.286 64.38C263.672 64.7133 264.166 64.88 264.766 64.88C265.499 64.88 266.139 64.7267 266.686 64.42C267.232 64.1 267.659 63.6733 267.966 63.14C268.272 62.6067 268.426 62.0133 268.426 61.36V58.64C268.426 58 268.192 57.48 267.726 57.08C267.259 56.68 266.652 56.48 265.906 56.48C265.252 56.48 264.679 56.6467 264.186 56.98C263.692 57.3 263.326 57.72 263.086 58.24L261.726 57.5C261.926 57.0467 262.239 56.6333 262.666 56.26C263.106 55.8867 263.606 55.5933 264.166 55.38C264.726 55.1533 265.306 55.04 265.906 55.04C266.692 55.04 267.386 55.1933 267.986 55.5C268.599 55.8067 269.072 56.2333 269.406 56.78C269.752 57.3133 269.926 57.9333 269.926 58.64V66H268.426V63.86L268.646 64.08C268.459 64.48 268.166 64.8467 267.766 65.18C267.379 65.5 266.919 65.76 266.386 65.96C265.866 66.1467 265.292 66.24 264.666 66.24ZM276.331 66.24C275.304 66.24 274.404 65.98 273.631 65.46C272.858 64.94 272.298 64.2333 271.951 63.34L273.211 62.74C273.518 63.3933 273.944 63.9133 274.491 64.3C275.051 64.6867 275.664 64.88 276.331 64.88C276.971 64.88 277.511 64.7267 277.951 64.42C278.391 64.1 278.611 63.6867 278.611 63.18C278.611 62.8067 278.504 62.5133 278.291 62.3C278.078 62.0733 277.831 61.9 277.551 61.78C277.271 61.66 277.024 61.5733 276.811 61.52L275.271 61.08C274.284 60.8 273.571 60.4067 273.131 59.9C272.691 59.3933 272.471 58.8067 272.471 58.14C272.471 57.5133 272.631 56.9667 272.951 56.5C273.271 56.0333 273.704 55.6733 274.251 55.42C274.798 55.1667 275.404 55.04 276.071 55.04C276.978 55.04 277.798 55.28 278.531 55.76C279.278 56.2267 279.804 56.88 280.111 57.72L278.831 58.32C278.564 57.72 278.178 57.2533 277.671 56.92C277.178 56.5733 276.624 56.4 276.011 56.4C275.411 56.4 274.931 56.5533 274.571 56.86C274.211 57.1667 274.031 57.5533 274.031 58.02C274.031 58.38 274.124 58.6667 274.311 58.88C274.498 59.0933 274.711 59.2533 274.951 59.36C275.204 59.4667 275.424 59.5467 275.611 59.6L277.391 60.12C278.258 60.3733 278.931 60.7667 279.411 61.3C279.904 61.8333 280.151 62.46 280.151 63.18C280.151 63.7667 279.984 64.2933 279.651 64.76C279.331 65.2267 278.884 65.5933 278.311 65.86C277.738 66.1133 277.078 66.24 276.331 66.24ZM287.407 66.24C286.394 66.24 285.474 66 284.647 65.52C283.82 65.0267 283.16 64.36 282.667 63.52C282.187 62.6667 281.947 61.7 281.947 60.62C281.947 59.5533 282.187 58.6 282.667 57.76C283.147 56.92 283.794 56.26 284.607 55.78C285.434 55.2867 286.367 55.04 287.407 55.04C288.447 55.04 289.374 55.28 290.187 55.76C291.014 56.24 291.66 56.9 292.127 57.74C292.607 58.58 292.847 59.54 292.847 60.62C292.847 61.7133 292.6 62.6867 292.107 63.54C291.614 64.38 290.954 65.04 290.127 65.52C289.314 66 288.407 66.24 287.407 66.24ZM287.407 64.74C288.127 64.74 288.774 64.56 289.347 64.2C289.934 63.84 290.394 63.3467 290.727 62.72C291.074 62.0933 291.247 61.3933 291.247 60.62C291.247 59.8467 291.074 59.1533 290.727 58.54C290.394 57.9267 289.934 57.44 289.347 57.08C288.774 56.72 288.127 56.54 287.407 56.54C286.687 56.54 286.034 56.72 285.447 57.08C284.874 57.44 284.414 57.9267 284.067 58.54C283.72 59.1533 283.547 59.8467 283.547 60.62C283.547 61.3933 283.72 62.0933 284.067 62.72C284.414 63.3467 284.874 63.84 285.447 64.2C286.034 64.56 286.687 64.74 287.407 64.74ZM295.092 66V50.86H296.592V66H295.092ZM299.263 66V55.28H300.763V66H299.263ZM299.263 53.3V51.1H300.763V53.3H299.263ZM303.433 66V55.28H304.933V57.36L304.593 57.28C304.86 56.5867 305.293 56.04 305.893 55.64C306.506 55.24 307.213 55.04 308.013 55.04C308.773 55.04 309.453 55.2133 310.053 55.56C310.666 55.9067 311.146 56.3867 311.493 57C311.853 57.6 312.033 58.28 312.033 59.04V66H310.533V59.62C310.533 58.9667 310.413 58.4133 310.173 57.96C309.946 57.5067 309.62 57.16 309.193 56.92C308.78 56.6667 308.3 56.54 307.753 56.54C307.206 56.54 306.72 56.6667 306.293 56.92C305.866 57.16 305.533 57.5133 305.293 57.98C305.053 58.4333 304.933 58.98 304.933 59.62V66H303.433ZM319.378 66.24C318.378 66.24 317.471 66 316.658 65.52C315.858 65.0267 315.224 64.3533 314.758 63.5C314.291 62.6467 314.058 61.68 314.058 60.6C314.058 59.52 314.284 58.5667 314.738 57.74C315.191 56.9 315.804 56.24 316.578 55.76C317.364 55.28 318.244 55.04 319.218 55.04C319.991 55.04 320.678 55.1867 321.278 55.48C321.891 55.76 322.411 56.1467 322.838 56.64C323.264 57.12 323.591 57.6667 323.818 58.28C324.044 58.88 324.158 59.5 324.158 60.14C324.158 60.2733 324.151 60.4267 324.138 60.6C324.124 60.76 324.104 60.9267 324.078 61.1H315.018V59.7H323.218L322.498 60.3C322.618 59.5667 322.531 58.9133 322.238 58.34C321.958 57.7533 321.551 57.2933 321.018 56.96C320.484 56.6133 319.884 56.44 319.218 56.44C318.551 56.44 317.931 56.6133 317.358 56.96C316.798 57.3067 316.358 57.7933 316.038 58.42C315.718 59.0333 315.591 59.7667 315.658 60.62C315.591 61.4733 315.724 62.22 316.058 62.86C316.404 63.4867 316.871 63.9733 317.458 64.32C318.058 64.6667 318.698 64.84 319.378 64.84C320.164 64.84 320.824 64.6533 321.358 64.28C321.891 63.9067 322.324 63.44 322.658 62.88L323.938 63.56C323.724 64.04 323.398 64.4867 322.958 64.9C322.518 65.3 321.991 65.6267 321.378 65.88C320.778 66.12 320.111 66.24 319.378 66.24Z" fill="#90A3BF"/>
<path d="M410.128 66L416.488 53.1H409.328V51.1H418.948V53.1L412.688 66H410.128ZM426.482 66.24C425.296 66.24 424.256 65.92 423.362 65.28C422.469 64.6267 421.769 63.7267 421.262 62.58C420.769 61.42 420.522 60.0733 420.522 58.54C420.522 56.9933 420.769 55.6467 421.262 54.5C421.769 53.3533 422.462 52.46 423.342 51.82C424.236 51.18 425.276 50.86 426.462 50.86C427.649 50.86 428.682 51.18 429.562 51.82C430.456 52.46 431.149 53.36 431.642 54.52C432.149 55.6667 432.402 57.0067 432.402 58.54C432.402 60.0733 432.156 61.42 431.662 62.58C431.169 63.7267 430.476 64.6267 429.582 65.28C428.702 65.92 427.669 66.24 426.482 66.24ZM426.482 64.08C427.216 64.08 427.849 63.8533 428.382 63.4C428.916 62.9467 429.329 62.3067 429.622 61.48C429.916 60.6533 430.062 59.6733 430.062 58.54C430.062 57.4067 429.916 56.4267 429.622 55.6C429.329 54.7733 428.916 54.1333 428.382 53.68C427.849 53.2267 427.209 53 426.462 53C425.729 53 425.096 53.2267 424.562 53.68C424.029 54.1333 423.616 54.7733 423.322 55.6C423.029 56.4267 422.882 57.4067 422.882 58.54C422.882 59.66 423.029 60.64 423.322 61.48C423.616 62.3067 424.029 62.9467 424.562 63.4C425.109 63.8533 425.749 64.08 426.482 64.08ZM434.759 66V51.1H437.119V63.9H443.559V66H434.759Z" fill="#596780"/>
</svg>
