<svg width="108" height="20" viewBox="0 0 108 20" fill="none" xmlns="http://www.w3.org/2000/svg">
<g clip-path="url(#clip0_44_16211)">
<path fill-rule="evenodd" clip-rule="evenodd" d="M9.16664 2.65835C9.22421 2.47581 9.33846 2.31638 9.49281 2.20321C9.64717 2.09004 9.83358 2.02902 10.025 2.02902C10.2164 2.02902 10.4028 2.09004 10.5571 2.20321C10.7115 2.31638 10.8257 2.47581 10.8833 2.65835L12.4333 7.42501H17.4333C17.6315 7.41752 17.8268 7.47513 17.9892 7.58905C18.1516 7.70296 18.2723 7.86692 18.3327 8.05586C18.3932 8.24481 18.3902 8.44835 18.324 8.63539C18.2579 8.82244 18.1324 8.9827 17.9666 9.09168L13.9083 12.0333L15.4583 16.8083C15.5196 16.9902 15.5212 17.187 15.4627 17.3698C15.4043 17.5526 15.2889 17.712 15.1335 17.8246C14.9781 17.9372 14.7907 17.9972 14.5988 17.9958C14.4068 17.9943 14.2204 17.9316 14.0666 17.8167L9.99998 14.8417L5.94164 17.7917C5.7879 17.9066 5.60145 17.9693 5.40951 17.9708C5.21758 17.9722 5.03022 17.9122 4.87479 17.7996C4.71936 17.687 4.604 17.5276 4.54557 17.3448C4.48713 17.162 4.48868 16.9652 4.54998 16.7833L6.09998 12.0083L2.04164 9.06668C1.87588 8.9577 1.75035 8.79744 1.68424 8.61039C1.61813 8.42335 1.61508 8.21981 1.67554 8.03086C1.736 7.84192 1.85666 7.67796 2.01907 7.56405C2.18149 7.45013 2.37673 7.39252 2.57498 7.40002H7.57498L9.16664 2.65835Z" fill="#FBAD39"/>
<path fill-rule="evenodd" clip-rule="evenodd" d="M31.1666 2.65835C31.2242 2.47581 31.3385 2.31638 31.4928 2.20321C31.6472 2.09004 31.8336 2.02902 32.025 2.02902C32.2164 2.02902 32.4028 2.09004 32.5571 2.20321C32.7115 2.31638 32.8257 2.47581 32.8833 2.65835L34.4333 7.42501H39.4333C39.6315 7.41752 39.8268 7.47513 39.9892 7.58905C40.1516 7.70296 40.2723 7.86692 40.3327 8.05586C40.3932 8.24481 40.3902 8.44835 40.324 8.63539C40.2579 8.82244 40.1324 8.9827 39.9666 9.09168L35.9083 12.0333L37.4583 16.8083C37.5196 16.9902 37.5212 17.187 37.4627 17.3698C37.4043 17.5526 37.2889 17.712 37.1335 17.8246C36.9781 17.9372 36.7907 17.9972 36.5988 17.9958C36.4068 17.9943 36.2204 17.9316 36.0666 17.8167L32 14.8417L27.9416 17.7917C27.7879 17.9066 27.6014 17.9693 27.4095 17.9708C27.2176 17.9722 27.0302 17.9122 26.8748 17.7996C26.7194 17.687 26.604 17.5276 26.5456 17.3448C26.4871 17.162 26.4887 16.9652 26.55 16.7833L28.1 12.0083L24.0416 9.06668C23.8759 8.9577 23.7504 8.79744 23.6842 8.61039C23.6181 8.42335 23.6151 8.21981 23.6755 8.03086C23.736 7.84192 23.8567 7.67796 24.0191 7.56405C24.1815 7.45013 24.3767 7.39252 24.575 7.40002H29.575L31.1666 2.65835Z" fill="#FBAD39"/>
<path fill-rule="evenodd" clip-rule="evenodd" d="M53.1666 2.65835C53.2242 2.47581 53.3385 2.31638 53.4928 2.20321C53.6472 2.09004 53.8336 2.02902 54.025 2.02902C54.2164 2.02902 54.4028 2.09004 54.5571 2.20321C54.7115 2.31638 54.8257 2.47581 54.8833 2.65835L56.4333 7.42501H61.4333C61.6315 7.41752 61.8268 7.47513 61.9892 7.58905C62.1516 7.70296 62.2723 7.86692 62.3327 8.05586C62.3932 8.24481 62.3902 8.44835 62.324 8.63539C62.2579 8.82244 62.1324 8.9827 61.9666 9.09168L57.9083 12.0333L59.4583 16.8083C59.5196 16.9902 59.5212 17.187 59.4627 17.3698C59.4043 17.5526 59.2889 17.712 59.1335 17.8246C58.9781 17.9372 58.7907 17.9972 58.5988 17.9958C58.4068 17.9943 58.2204 17.9316 58.0666 17.8167L54 14.8417L49.9416 17.7917C49.7879 17.9066 49.6014 17.9693 49.4095 17.9708C49.2176 17.9722 49.0302 17.9122 48.8748 17.7996C48.7194 17.687 48.604 17.5276 48.5456 17.3448C48.4871 17.162 48.4887 16.9652 48.55 16.7833L50.1 12.0083L46.0416 9.06668C45.8759 8.9577 45.7504 8.79744 45.6842 8.61039C45.6181 8.42335 45.6151 8.21981 45.6755 8.03086C45.736 7.84192 45.8567 7.67796 46.0191 7.56405C46.1815 7.45013 46.3767 7.39252 46.575 7.40002H51.575L53.1666 2.65835Z" fill="#FBAD39"/>
<path fill-rule="evenodd" clip-rule="evenodd" d="M75.1666 2.65835C75.2242 2.47581 75.3385 2.31638 75.4928 2.20321C75.6472 2.09004 75.8336 2.02902 76.025 2.02902C76.2164 2.02902 76.4028 2.09004 76.5571 2.20321C76.7115 2.31638 76.8257 2.47581 76.8833 2.65835L78.4333 7.42501H83.4333C83.6315 7.41752 83.8268 7.47513 83.9892 7.58905C84.1516 7.70296 84.2723 7.86692 84.3327 8.05586C84.3932 8.24481 84.3902 8.44835 84.324 8.63539C84.2579 8.82244 84.1324 8.9827 83.9666 9.09168L79.9083 12.0333L81.4583 16.8083C81.5196 16.9902 81.5212 17.187 81.4627 17.3698C81.4043 17.5526 81.2889 17.712 81.1335 17.8246C80.9781 17.9372 80.7907 17.9972 80.5988 17.9958C80.4068 17.9943 80.2204 17.9316 80.0666 17.8167L76 14.8417L71.9416 17.7917C71.7879 17.9066 71.6014 17.9693 71.4095 17.9708C71.2176 17.9722 71.0302 17.9122 70.8748 17.7996C70.7194 17.687 70.604 17.5276 70.5456 17.3448C70.4871 17.162 70.4887 16.9652 70.55 16.7833L72.1 12.0083L68.0416 9.06668C67.8759 8.9577 67.7504 8.79744 67.6842 8.61039C67.6181 8.42335 67.6151 8.21981 67.6755 8.03086C67.736 7.84192 67.8567 7.67796 68.0191 7.56405C68.1815 7.45013 68.3767 7.39252 68.575 7.40002H73.575L75.1666 2.65835Z" fill="#FBAD39"/>
<path fill-rule="evenodd" clip-rule="evenodd" d="M97.1666 2.65835C97.2242 2.47581 97.3385 2.31638 97.4928 2.20321C97.6472 2.09004 97.8336 2.02902 98.025 2.02902C98.2164 2.02902 98.4028 2.09004 98.5571 2.20321C98.7115 2.31638 98.8257 2.47581 98.8833 2.65835L100.433 7.42502H105.433C105.632 7.41752 105.827 7.47513 105.989 7.58905C106.152 7.70296 106.272 7.86692 106.333 8.05586C106.393 8.24481 106.39 8.44835 106.324 8.63539C106.258 8.82244 106.132 8.9827 105.967 9.09168L101.908 12.0333L103.458 16.8083C103.52 16.9902 103.521 17.187 103.463 17.3698C103.404 17.5526 103.289 17.712 103.133 17.8246C102.978 17.9372 102.791 17.9972 102.599 17.9958C102.407 17.9943 102.22 17.9316 102.067 17.8167L98 14.8417L93.9416 17.7917C93.7879 17.9066 93.6014 17.9693 93.4095 17.9708C93.2176 17.9722 93.0302 17.9122 92.8748 17.7996C92.7194 17.687 92.604 17.5276 92.5456 17.3448C92.4871 17.162 92.4887 16.9652 92.55 16.7833L94.1 12.0083L90.0416 9.06668C89.8759 8.9577 89.7504 8.79744 89.6842 8.61039C89.6181 8.42335 89.6151 8.21981 89.6755 8.03086C89.736 7.84192 89.8567 7.67796 90.0191 7.56405C90.1815 7.45013 90.3767 7.39252 90.575 7.40002H95.575L97.1666 2.65835Z" stroke="#90A3BF" stroke-width="1.5" stroke-linecap="round" stroke-linejoin="round"/>
</g>
<defs>
<clipPath id="clip0_44_16211">
<rect width="108" height="20" fill="white"/>
</clipPath>
</defs>
</svg>
